<?xml version="1.0" encoding="UTF-8" standalone="no"?>
<!DOCTYPE svg PUBLIC "-//W3C//DTD SVG 1.1//EN" "http://www.w3.org/Graphics/SVG/1.1/DTD/svg11.dtd">
<svg width="100%" height="100%" viewBox="0 0 321 321" version="1.1" xmlns="http://www.w3.org/2000/svg" xmlns:xlink="http://www.w3.org/1999/xlink" xml:space="preserve" xmlns:serif="http://www.serif.com/" style="fill-rule:evenodd;clip-rule:evenodd;stroke-linejoin:round;stroke-miterlimit:2;">
    <g transform="matrix(1,0,0,1,-614.947,-109.041)">
        <g transform="matrix(1.06418,0,0,1.6469,-1804.97,-4.26326e-14)">
            <g transform="matrix(1,0,0,1,2.15613,31.136)">
                <g transform="matrix(1.1534,0,0,0.628302,1516.64,-17.8908)">
                    <clipPath id="_clip1">
                        <path d="M698.941,213.153C698.941,142.036 747.616,84.298 807.569,84.298C867.523,84.298 916.197,142.036 916.197,213.153L698.941,213.153ZM915.66,226.038C915.294,230.401 914.744,234.7 914.02,238.924L701.118,238.924C700.394,234.7 699.845,230.401 699.479,226.038L915.66,226.038ZM911.216,251.81C910.049,256.211 908.688,260.511 907.145,264.695L707.993,264.695C706.45,260.511 705.09,256.211 703.922,251.81L911.216,251.81ZM901.646,277.581C899.463,282.052 897.06,286.355 894.455,290.466L720.684,290.466C718.078,286.355 715.676,282.052 713.493,277.581L901.646,277.581ZM885.115,303.352C881.268,308.005 877.125,312.315 872.724,316.237L742.415,316.237C738.013,312.315 733.871,308.005 730.023,303.352L885.115,303.352ZM854.944,329.123C840.623,337.377 824.549,342.008 807.569,342.008C790.59,342.008 774.515,337.377 760.194,329.123L854.944,329.123Z"/>
                    </clipPath>
                    <g clip-path="url(#_clip1)">
                        <path d="M698.944,212.216C699.369,141.529 747.879,84.298 807.569,84.298C867.523,84.298 916.197,142.036 916.197,213.153C916.197,284.27 867.523,342.008 807.569,342.008C806.471,342.008 805.377,341.989 804.287,341.95C805.819,339.2 807.472,336.65 809.243,334.3C810.335,332.864 811.204,331.209 811.81,329.412C813.205,325.298 814.268,321.002 814.811,316.422C815.011,314.621 814.199,312.876 812.808,312.118C812.13,311.745 811.507,311.322 810.955,310.826C809.443,309.435 808.803,307.088 809.341,304.91C810.234,301.913 811.89,298.723 813.935,295.44C815.688,299.955 817.871,304.47 820.484,308.985C818.845,304.258 821.079,292.292 824.178,278.707C827.947,284.908 829.013,286.005 832.781,289.097C828.723,260.815 835.083,250.573 818.05,215.211C819.103,214.723 825.642,211.755 827.725,211.075C807.874,204.59 788.503,183.631 759.862,182.595L763.808,177.914C761.023,178.894 758.486,179.579 756.504,179.607C758.039,176.689 759.023,173.697 759.526,170.643C739.255,192.186 722.087,180.64 704.698,207.594C702.609,209.031 700.695,210.577 698.944,212.216Z" style="fill:white;"/>
                    </g>
                </g>
                <g transform="matrix(0.626458,0,0,0.4048,1084.38,64.7889)">
                    <clipPath id="_clip2">
                        <path d="M2516.2,-179.135L2516.2,485.394L1829.87,468.094L1829.87,-208.326L2516.2,-179.135ZM2176.86,-73.408C2066.48,-73.408 1976.86,16.209 1976.86,126.592C1976.86,236.975 2066.48,326.592 2176.86,326.592C2287.24,326.592 2376.86,236.975 2376.86,126.592C2376.86,16.209 2287.24,-73.408 2176.86,-73.408Z"/>
                    </clipPath>
                    <g clip-path="url(#_clip2)">
                        <path d="M2184.62,314.175L2184.62,314.178C2175.01,324.158 2167.24,336.724 2161.35,351.953C2160.12,355.169 2157.03,357.291 2153.53,357.288L2153.47,357.285C2140.95,356.787 2121.75,352.052 2101.51,346.608C2092.74,358.164 2087.56,368.255 2087.51,376.611L2087.49,379.766L2084.34,379.717C2052.44,379.221 2026.15,372.122 2007.8,355.899L2005.77,354.098L2007.27,351.832C2009.76,348.071 2011.66,344.507 2012.62,341.206C2012.95,340.071 2013.17,338.973 2013.25,337.921L2001.61,346.625L2001.96,339.955C2002.62,327.691 2002.73,317.968 1995.43,309.118C1988.73,317.257 1978.28,324.417 1968.25,331.858L1960.51,337.599L1963.41,328.408C1969.83,308.056 1970.3,287.569 1952.98,267.149C1945.22,271.514 1938.7,272.309 1928.97,281.199L1915.29,293.698L1924.11,277.404C1939.35,249.266 1941.05,230.754 1941.18,213.698C1941.27,201.891 1940.67,190.759 1943.02,177.789C1947.18,154.86 1958.71,131.235 1985.37,115.564C1989.93,110.008 1996.57,108.48 2004.86,110.564C2015.87,113.33 2030.18,122.887 2045.88,136.613C2093.46,178.217 2154.7,258.124 2176.93,293.176C2180.94,299.49 2183.7,304.399 2184.95,307.426C2185.74,309.322 2185.98,310.75 2185.91,311.588L2185.88,312.074L2185.69,312.526C2185.45,313.139 2185.08,313.699 2184.62,314.175ZM2182.37,312.007C2182.55,311.819 2182.7,311.597 2182.8,311.355C2183.78,298.157 2019.17,76.52 1987.46,117.964C1961.37,133.093 1950.14,156.069 1946.1,178.347C1940.31,210.289 1952.83,230.922 1926.86,278.892C1937.72,268.964 1944.63,268.906 1953.6,263.124C1973.56,285.199 1973.33,307.341 1966.39,329.348C1977.38,321.194 1988.94,313.455 1995.19,304.244C2005.65,314.515 2005.86,325.63 2005.08,340.122L2015.44,332.38C2017.97,338.122 2015.26,345.441 2009.87,353.558C2027.72,369.343 2053.35,376.11 2084.39,376.592C2084.44,367.345 2090.23,355.987 2100.31,343.046C2121.02,348.644 2140.82,353.655 2153.59,354.163C2155.74,354.165 2157.67,352.841 2158.43,350.835C2164.49,335.171 2172.49,322.265 2182.37,312.007Z" style="fill:white;"/>
                    </g>
                </g>
            </g>
        </g>
    </g>
</svg>
