<?xml version="1.0" encoding="UTF-8" standalone="no"?>
<!DOCTYPE svg PUBLIC "-//W3C//DTD SVG 1.1//EN" "http://www.w3.org/Graphics/SVG/1.1/DTD/svg11.dtd">
<svg width="100%" height="100%" viewBox="0 0 1063 1063" version="1.1" xmlns="http://www.w3.org/2000/svg" xmlns:xlink="http://www.w3.org/1999/xlink" xml:space="preserve" xmlns:serif="http://www.serif.com/" style="fill-rule:evenodd;clip-rule:evenodd;stroke-linejoin:round;stroke-miterlimit:2;">
    <g transform="matrix(1,0,0,1,-1365.73,-1162.07)">
        <g transform="matrix(1,0,0,1,219.149,58.904)">
            <g transform="matrix(1.86198,0,0,1.75621,-2210.19,2672.75)">
                <g transform="matrix(1.01492,0,0,1.07604,37.3408,-893.728)">
                    <path d="M2161.03,475C2128.07,491.015 2091.08,500 2052,500C2049.47,500 2046.96,499.962 2044.45,499.888C2047.97,494.551 2051.78,489.605 2055.85,485.046C2058.37,482.258 2060.37,479.047 2061.76,475.562C2061.83,475.375 2061.91,475.187 2061.98,475L2161.03,475ZM2230.47,425C2221.61,434.029 2212.08,442.39 2201.95,450L2068.71,450C2069,446.635 2067.15,443.429 2064.06,442.008C2062.5,441.284 2061.06,440.464 2059.79,439.502C2056.31,436.802 2054.84,432.249 2056.08,428.023C2056.43,427.026 2056.83,426.018 2057.28,425L2074.73,425C2076.89,428.643 2079.22,432.287 2081.72,435.93C2080.65,433.331 2080.3,429.605 2080.51,425L2230.47,425ZM2268.51,375C2263.49,383.676 2257.96,392.023 2251.96,400L2103.97,400C2103.2,391.32 2103.08,383.083 2103.15,375L2268.51,375ZM2290.54,325C2287.85,333.539 2284.72,341.882 2281.17,350L2103.37,350C2103.27,341.908 2102.85,333.671 2101.6,325L2290.54,325ZM2300.76,275C2299.92,283.464 2298.66,291.805 2296.99,300L2095.78,300C2093.23,292.172 2089.87,283.889 2085.42,275L2300.76,275ZM1802.01,248.183C1802.99,111.039 1914.63,0 2052,0C2189.98,0 2302,112.021 2302,250L2086.79,250C2043.72,235.143 2005.06,192.629 1942.2,190.713L1951.29,181.63C1944.88,183.531 1939.04,184.862 1934.48,184.915C1938.01,179.253 1940.27,173.45 1941.43,167.524C1894.78,209.32 1855.27,186.92 1815.25,239.215C1810.44,242.002 1806.04,245.003 1802.01,248.183ZM2084.48,400C2086.08,392.887 2088.06,385.181 2090.22,377.186C2093.22,385.506 2096.2,393.07 2099.2,400L2084.48,400Z" style="fill:rgb(35,31,32);"/>
                </g>
                <g transform="matrix(1.26865,0,0,1.34506,-641.718,-794.99)">
                    <clipPath id="_clip1">
                        <path d="M2426.86,-123.408L2426.86,376.592L1926.86,376.592L1926.86,-123.408L2426.86,-123.408ZM2176.86,-73.408C2066.48,-73.408 1976.86,16.209 1976.86,126.592C1976.86,236.975 2066.48,326.592 2176.86,326.592C2287.24,326.592 2376.86,236.975 2376.86,126.592C2376.86,16.209 2287.24,-73.408 2176.86,-73.408Z"/>
                    </clipPath>
                    <g clip-path="url(#_clip1)">
                        <path d="M2209.76,128.167C2205.92,129.223 2201.68,129.995 2196.15,129.868C2198.71,132.114 2201.55,134.409 2205.12,136.824C2202.24,135.312 2199.44,134.108 2197.24,134.969C2229.29,189.165 2212.49,215.833 2219.96,258.177C2215.79,249.729 2211.61,239.955 2207.44,228.341C2201.73,249.426 2197.62,267.998 2200.64,275.336C2195.83,268.328 2191.81,261.32 2188.58,254.312C2183.91,260.626 2180.35,266.72 2179.28,272.317C2179.19,272.798 2179.25,273.294 2179.45,273.74C2181.21,277.571 2184.83,279.815 2189.36,281.265C2190.17,281.523 2190.7,282.308 2190.62,283.155C2189.73,292.996 2186.97,301.974 2183.22,310.497C2182.89,311.256 2182.43,311.951 2181.85,312.551C2171.72,323.244 2163.58,336.767 2157.54,353.241C2157.33,353.805 2156.8,354.186 2156.2,354.202C2143.62,354.362 2122.49,349.041 2100.31,343.046C2090.23,355.987 2084.44,367.345 2084.39,376.592C2053.35,376.11 2027.72,369.343 2009.87,353.558C2015.26,345.441 2017.97,338.122 2015.44,332.38L2008.17,341.191C2010.38,326.699 2005.65,314.515 1995.19,304.244C1988.94,313.455 1979.29,321.907 1968.29,330.061C1978.44,305.322 1976.17,282.586 1953.6,263.124C1944.63,268.906 1936,269.35 1926.86,278.892C1952.83,230.922 1940.31,210.289 1946.1,178.347C1950.14,156.069 1961.37,133.093 1987.46,117.964C2019.47,76.128 2051.08,94.049 2088.41,60.612C2087.48,65.352 2085.67,69.995 2082.84,74.525C2086.49,74.482 2091.16,73.417 2096.29,71.897L2089.02,79.162C2141.76,80.77 2173.21,118.101 2209.76,128.167ZM2195.6,132.889C2195.2,132.543 2194.8,132.199 2194.41,131.855C2193.57,131.121 2193.28,129.942 2193.69,128.906C2194.09,127.87 2195.1,127.197 2196.22,127.223C2197.12,127.243 2198,127.239 2198.84,127.211C2184.1,121.219 2169.8,111.668 2154.15,102.794C2135.48,92.199 2114.83,82.596 2088.94,81.807C2087.89,81.775 2086.95,81.119 2086.56,80.138C2086.18,79.156 2086.41,78.038 2087.15,77.291L2087.76,76.683C2085.99,76.98 2084.35,77.153 2082.87,77.17C2081.9,77.182 2081.01,76.665 2080.53,75.822C2080.06,74.979 2080.08,73.944 2080.6,73.124C2081.58,71.546 2082.43,69.953 2083.16,68.347C2066.8,80.643 2051.5,84.27 2036.69,88.674C2020.59,93.464 2005.12,99.244 1989.56,119.572C1989.35,119.848 1989.09,120.079 1988.79,120.253C1963.48,134.924 1952.62,157.217 1948.7,178.819C1946.41,191.433 1947.04,202.261 1946.95,213.743C1946.83,229.289 1945.48,246.002 1934.52,269.564C1936.08,268.672 1937.64,267.904 1939.19,267.193C1943.5,265.218 1947.8,263.717 1952.17,260.899C1953.16,260.264 1954.44,260.354 1955.33,261.12C1976.28,279.186 1980.54,299.941 1973.8,322.473C1981.56,316.205 1988.28,309.712 1993,302.76C1993.44,302.11 1994.14,301.69 1994.92,301.612C1995.71,301.534 1996.48,301.807 1997.04,302.356C2006.07,311.215 2011.04,321.423 2011.34,333.192L2013.4,330.697C2013.98,329.988 2014.89,329.633 2015.8,329.759C2016.71,329.884 2017.49,330.472 2017.86,331.311C2020.48,337.242 2018.43,344.773 2013.34,353.045C2030.18,366.989 2053.69,373.133 2081.9,373.893C2082.9,364.728 2088.63,353.726 2098.22,341.42C2098.88,340.58 2099.97,340.214 2101,340.492C2122.44,346.286 2142.87,351.491 2155.34,351.56C2161.49,335.062 2169.72,321.498 2179.93,310.731L2179.94,310.725C2180.3,310.347 2180.59,309.908 2180.8,309.429C2184.35,301.353 2187,292.857 2187.93,283.576C2182.91,281.864 2179.03,279.152 2177.05,274.844L2177.04,274.827L2176.63,273.367L2176.67,271.851L2176.68,271.819C2177.81,265.899 2181.52,259.419 2186.45,252.74C2187.01,251.987 2187.92,251.585 2188.85,251.68C2189.78,251.776 2190.59,252.356 2190.98,253.205C2192.78,257.104 2194.82,261.003 2197.12,264.901C2197.2,263.777 2197.31,262.602 2197.46,261.38C2198.55,252.322 2201.42,240.442 2204.89,227.65C2205.19,226.534 2206.18,225.744 2207.33,225.697C2208.49,225.651 2209.54,226.359 2209.93,227.446C2211.76,232.551 2213.6,237.297 2215.43,241.729C2214.85,231.442 2215.25,221.83 2215.32,212.106C2215.46,190.466 2213.85,168.258 2194.96,136.316C2194.56,135.648 2194.48,134.84 2194.74,134.106C2194.9,133.621 2195.2,133.2 2195.6,132.889Z" style="fill:rgb(45,42,41);"/>
                    </g>
                </g>
            </g>
        </g>
    </g>
</svg>
