<?xml version="1.0" encoding="UTF-8" standalone="no"?>
<!DOCTYPE svg PUBLIC "-//W3C//DTD SVG 1.1//EN" "http://www.w3.org/Graphics/SVG/1.1/DTD/svg11.dtd">
<svg width="100%" height="100%" viewBox="0 0 7634 1183" version="1.1" xmlns="http://www.w3.org/2000/svg" xmlns:xlink="http://www.w3.org/1999/xlink" xml:space="preserve" xmlns:serif="http://www.serif.com/" style="fill-rule:evenodd;clip-rule:evenodd;stroke-linejoin:round;stroke-miterlimit:2;">
    <g transform="matrix(1,0,0,1,-437.686,-1296.74)">
        <g transform="matrix(1.06418,0,0,1.6469,-1941.58,910.183)">
            <g transform="matrix(15.9235,0,0,10.2893,-1711.91,-477.349)">
                <path d="M265.283,84.268C263.659,85.138 262.646,86.831 262.646,88.674C262.645,94.503 262.645,107.689 262.645,114.934C262.645,117.696 260.407,119.934 257.645,119.934C256.128,119.934 254.462,119.934 252.945,119.934C251.619,119.934 250.347,119.407 249.41,118.47C248.472,117.532 247.945,116.26 247.945,114.934C247.945,105.229 247.945,83.94 247.945,74.234C247.945,72.908 248.472,71.636 249.41,70.699C250.347,69.761 251.619,69.234 252.945,69.234C254.711,69.234 256.583,69.234 257.898,69.234C258.897,69.234 259.742,69.976 259.871,70.967C259.871,70.968 259.871,70.969 259.871,70.97C260.05,72.339 260.924,73.519 262.182,74.088C263.44,74.658 264.904,74.536 266.05,73.767C267.258,72.913 268.459,72.19 269.645,71.584C272.712,70.017 276.045,69.234 279.645,69.234C284.045,69.234 287.395,70.384 289.695,72.684C289.844,72.833 289.989,72.987 290.128,73.146C291.802,75.001 294.592,75.328 296.65,73.911C297.94,73.003 299.222,72.228 300.495,71.584C303.595,70.017 306.912,69.234 310.445,69.234C314.912,69.234 318.312,70.401 320.645,72.734C322.978,75.067 324.145,78.467 324.145,82.934C324.145,82.934 324.145,104.835 324.145,114.934C324.145,117.696 321.907,119.934 319.145,119.934C317.659,119.934 316.031,119.934 314.545,119.934C311.784,119.934 309.545,117.696 309.545,114.934C309.545,106.173 309.545,88.851 309.545,87.605C309.545,87.54 309.544,87.476 309.541,87.411C309.461,85.409 309.029,83.966 308.245,83.084C307.445,82.184 306.045,81.734 304.045,81.734C302.912,81.734 301.795,81.884 300.695,82.184C299.595,82.484 298.345,83.001 296.945,83.734C296.558,83.937 296.148,84.16 295.715,84.404C294.129,85.286 293.146,86.958 293.146,88.772C293.145,94.548 293.145,107.699 293.145,114.934C293.145,117.696 290.907,119.934 288.145,119.934C286.783,119.934 285.307,119.934 283.945,119.934C281.184,119.934 278.945,117.696 278.945,114.934C278.945,105.847 278.945,87.534 278.945,87.534C278.945,85.401 278.495,83.901 277.595,83.034C276.695,82.167 275.312,81.734 273.445,81.734C272.312,81.734 271.195,81.884 270.095,82.184C268.995,82.484 267.728,83.001 266.295,83.734C265.974,83.899 265.636,84.076 265.283,84.268Z" style="fill:rgb(35,31,32);stroke:rgb(45,42,41);stroke-width:0.06px;"/>
                <path d="M359.445,69.234C365.645,69.234 370.612,70.084 374.345,71.784C378.078,73.484 380.762,76.234 382.395,80.034C384.028,83.834 384.845,88.934 384.845,95.334C384.845,101.601 384.028,106.634 382.395,110.434C380.762,114.234 378.078,116.967 374.345,118.634C370.612,120.301 365.645,121.134 359.445,121.134C353.312,121.134 348.378,120.301 344.645,118.634C340.912,116.967 338.212,114.234 336.545,110.434C334.878,106.634 334.045,101.601 334.045,95.334C334.045,88.934 334.878,83.834 336.545,80.034C338.212,76.234 340.912,73.484 344.645,71.784C348.378,70.084 353.312,69.234 359.445,69.234ZM359.445,79.934C356.912,79.934 354.912,80.367 353.445,81.234C351.978,82.101 350.945,83.634 350.345,85.834C349.745,88.034 349.445,91.201 349.445,95.334C349.445,99.334 349.745,102.434 350.345,104.634C350.945,106.834 351.978,108.351 353.445,109.184C354.912,110.017 356.912,110.434 359.445,110.434C362.045,110.434 364.078,110.017 365.545,109.184C367.012,108.351 368.028,106.834 368.595,104.634C369.162,102.434 369.445,99.334 369.445,95.334C369.445,91.201 369.162,88.034 368.595,85.834C368.028,83.634 367.012,82.101 365.545,81.234C364.078,80.367 362.045,79.934 359.445,79.934Z" style="fill:rgb(35,31,32);stroke:rgb(45,42,41);stroke-width:0.06px;"/>
                <path d="M412.232,99.634C411.292,99.634 410.408,100.085 409.856,100.847C409.304,101.609 409.151,102.589 409.444,103.483C409.445,103.483 409.445,103.484 409.445,103.484C410.178,105.717 411.428,107.267 413.195,108.134C414.962,109.001 417.412,109.434 420.545,109.434C422.812,109.434 425.628,109.351 428.995,109.184C430.823,109.094 432.655,108.969 434.493,108.81C437.116,108.582 439.466,110.427 439.866,113.029C439.89,113.175 439.912,113.321 439.935,113.467C440.316,115.94 438.81,118.314 436.41,119.023C435.618,119.242 434.797,119.45 433.945,119.634C431.478,120.167 428.945,120.551 426.345,120.784C423.745,121.017 421.245,121.134 418.845,121.134C412.578,121.134 407.545,120.217 403.745,118.384C399.945,116.551 397.195,113.734 395.495,109.934C393.795,106.134 392.945,101.267 392.945,95.334C392.945,88.867 393.795,83.734 395.495,79.934C397.195,76.134 399.912,73.401 403.645,71.734C407.378,70.067 412.278,69.234 418.345,69.234C426.678,69.234 432.662,70.651 436.295,73.484C439.928,76.317 441.745,80.534 441.745,86.133C441.745,86.141 441.745,86.149 441.745,86.157C441.808,90.612 440.674,93.971 438.345,96.234C436.012,98.501 431.978,99.634 426.245,99.634C426.245,99.634 417.376,99.634 412.232,99.634ZM409.243,84.942C408.805,86.452 409.103,88.08 410.048,89.337C410.992,90.594 412.473,91.334 414.045,91.334C417.873,91.334 422.238,91.334 422.245,91.334C422.245,91.334 422.245,91.334 422.245,91.334C424.445,91.334 425.862,90.851 426.495,89.884C427.128,88.917 427.445,87.567 427.445,85.834C427.445,83.501 426.795,81.884 425.495,80.984C424.203,80.089 422.004,79.639 418.899,79.634C418.864,79.634 418.83,79.634 418.795,79.633C416.086,79.572 413.969,79.922 412.445,80.684C410.912,81.451 409.845,82.867 409.245,84.934C409.244,84.937 409.244,84.939 409.243,84.942Z" style="fill:rgb(35,31,32);stroke:rgb(45,42,41);stroke-width:0.06px;"/>
                <path d="M496.045,69.234C497.845,69.234 499.812,69.317 501.945,69.484C504.078,69.651 506.228,69.951 508.395,70.384C508.906,70.486 509.406,70.599 509.897,70.721C512.438,71.349 514.062,73.834 513.618,76.414C513.58,76.679 513.535,76.944 513.489,77.209C513.067,79.663 510.902,81.432 508.412,81.358C507.284,81.324 506.178,81.299 505.095,81.284C502.662,81.251 500.478,81.234 498.545,81.234C495.545,81.234 493.178,81.634 491.445,82.434C489.712,83.234 488.462,84.634 487.695,86.634C486.928,88.634 486.545,91.467 486.545,95.134C486.545,98.801 486.928,101.667 487.695,103.734C488.462,105.801 489.712,107.234 491.445,108.034C493.178,108.834 495.545,109.234 498.545,109.234C499.612,109.234 500.978,109.201 502.645,109.134C504.312,109.067 506.112,108.984 508.045,108.884C508.421,108.865 508.797,108.842 509.17,108.816C511.769,108.642 514.065,110.492 514.449,113.068C514.483,113.289 514.516,113.51 514.549,113.73C514.915,116.19 513.418,118.545 511.035,119.257C509.466,119.693 507.805,120.058 506.045,120.334C502.645,120.867 499.278,121.134 495.945,121.134C489.878,121.134 485.012,120.284 481.345,118.584C477.678,116.884 475.045,114.134 473.445,110.334C471.845,106.534 471.045,101.467 471.045,95.134C471.045,88.801 471.862,83.734 473.495,79.934C475.128,76.134 477.778,73.401 481.445,71.734C485.112,70.067 489.978,69.234 496.045,69.234Z" style="fill:rgb(35,31,32);stroke:rgb(45,42,41);stroke-width:0.06px;"/>
                <path d="M546.845,69.234C553.045,69.234 558.012,70.084 561.745,71.784C565.478,73.484 568.162,76.234 569.795,80.034C571.428,83.834 572.245,88.934 572.245,95.334C572.245,101.601 571.428,106.634 569.795,110.434C568.162,114.234 565.478,116.967 561.745,118.634C558.012,120.301 553.045,121.134 546.845,121.134C540.712,121.134 535.778,120.301 532.045,118.634C528.312,116.967 525.612,114.234 523.945,110.434C522.278,106.634 521.445,101.601 521.445,95.334C521.445,88.934 522.278,83.834 523.945,80.034C525.612,76.234 528.312,73.484 532.045,71.784C535.778,70.084 540.712,69.234 546.845,69.234ZM546.845,79.934C544.312,79.934 542.312,80.367 540.845,81.234C539.378,82.101 538.345,83.634 537.745,85.834C537.145,88.034 536.845,91.201 536.845,95.334C536.845,99.334 537.145,102.434 537.745,104.634C538.345,106.834 539.378,108.351 540.845,109.184C542.312,110.017 544.312,110.434 546.845,110.434C549.445,110.434 551.478,110.017 552.945,109.184C554.412,108.351 555.428,106.834 555.995,104.634C556.562,102.434 556.845,99.334 556.845,95.334C556.845,91.201 556.562,88.034 555.995,85.834C555.428,83.634 554.412,82.101 552.945,81.234C551.478,80.367 549.445,79.934 546.845,79.934Z" style="fill:rgb(35,31,32);stroke:rgb(45,42,41);stroke-width:0.06px;"/>
                <path d="M600.611,85.217C598.546,85.883 597.147,87.805 597.147,89.975C597.145,95.978 597.145,108.092 597.145,114.934C597.145,117.696 594.907,119.934 592.145,119.934L587.445,119.934C586.119,119.934 584.847,119.407 583.91,118.47C582.972,117.532 582.445,116.26 582.445,114.934C582.445,105.229 582.445,83.94 582.445,74.234C582.445,72.908 582.972,71.636 583.91,70.699C584.847,69.761 586.119,69.234 587.445,69.234L591.614,69.234C592.956,69.234 594.098,70.211 594.306,71.537C594.306,71.537 594.306,71.538 594.306,71.538C594.513,72.863 595.375,73.993 596.596,74.546C597.818,75.098 599.235,74.997 600.367,74.278C601.947,73.236 603.542,72.36 605.145,71.634C608.678,70.034 612.112,69.234 615.445,69.234C615.445,69.234 615.445,69.234 615.445,69.234C616.109,69.234 616.742,69.515 617.187,70.008C617.632,70.501 617.847,71.16 617.779,71.82C617.577,73.779 617.297,76.506 617.065,78.757C616.826,81.073 614.875,82.834 612.547,82.834C612.546,82.834 612.545,82.834 612.545,82.834C610.212,82.834 607.778,83.167 605.245,83.834C603.891,84.19 602.346,84.652 600.611,85.217Z" style="fill:rgb(35,31,32);stroke:rgb(45,42,41);stroke-width:0.06px;"/>
                <path d="M642.969,118.464C642.273,118.12 641.448,118.17 640.798,118.595C640.149,119.02 639.773,119.756 639.809,120.531C639.795,120.533 639.795,120.533 639.795,120.534C639.894,122.641 639.911,124.748 639.848,126.855C639.846,126.906 639.845,126.957 639.845,127.008C639.845,127.544 639.845,130.913 639.845,133.934C639.845,136.696 637.607,138.934 634.845,138.934C633.328,138.934 631.662,138.934 630.145,138.934C628.819,138.934 627.547,138.407 626.61,137.47C625.672,136.532 625.145,135.26 625.145,133.934C625.145,121.095 625.145,87.074 625.145,74.234C625.145,71.473 627.384,69.234 630.145,69.234C631.389,69.234 632.689,69.234 633.822,69.234C635.667,69.234 637.226,70.601 637.468,72.43C637.468,72.431 637.468,72.432 637.468,72.433C637.601,73.436 638.251,74.295 639.181,74.696C640.11,75.097 641.181,74.981 642.002,74.39C642.259,74.199 642.524,74.015 642.795,73.834C644.895,72.434 647.212,71.334 649.745,70.534C652.278,69.734 654.878,69.334 657.545,69.334C663.745,69.334 668.178,71.601 670.845,76.134C673.512,80.667 674.845,87.167 674.845,95.634C674.845,102.234 674.162,107.384 672.795,111.084C671.428,114.784 669.362,117.401 666.595,118.934C663.828,120.467 660.378,121.234 656.245,121.234C652.712,121.234 649.345,120.734 646.145,119.734C645.043,119.39 643.984,118.966 642.969,118.464ZM642.271,83.634C640.771,84.536 639.854,86.159 639.854,87.91C639.845,92.055 639.845,100.024 639.845,104.738C639.845,106.982 641.34,108.951 643.501,109.554C643.907,109.668 644.305,109.778 644.695,109.884C646.528,110.384 648.612,110.634 650.945,110.634C653.078,110.634 654.778,110.267 656.045,109.534C657.312,108.801 658.245,107.351 658.845,105.184C659.445,103.017 659.745,99.867 659.745,95.734C659.745,91.667 659.462,88.534 658.895,86.334C658.328,84.134 657.462,82.634 656.295,81.834C655.128,81.034 653.578,80.634 651.645,80.634C649.445,80.634 647.445,81.034 645.645,81.834C644.599,82.299 643.475,82.899 642.271,83.634Z" style="fill:rgb(35,31,32);stroke:rgb(45,42,41);stroke-width:0.06px;"/>
                <path d="M689.345,104.734C689.345,104.734 693.145,104.734 693.145,104.734C695.078,104.734 696.428,105.117 697.195,105.884C697.962,106.651 698.345,108.001 698.345,109.934C698.345,109.934 698.345,114.734 698.345,114.734C698.345,116.667 697.962,118.017 697.195,118.784C696.428,119.551 695.078,119.934 693.145,119.934C693.145,119.934 689.345,119.934 689.345,119.934C687.412,119.934 686.062,119.551 685.295,118.784C684.528,118.017 684.145,116.667 684.145,114.734C684.145,114.734 684.145,109.934 684.145,109.934C684.145,108.001 684.528,106.651 685.295,105.884C686.062,105.117 687.412,104.734 689.345,104.734Z" style="fill:rgb(35,31,32);stroke:rgb(45,42,41);stroke-width:0.06px;"/>
            </g>
        </g>
    </g>
</svg>
