<?xml version="1.0" encoding="UTF-8" standalone="no"?>
<!DOCTYPE svg PUBLIC "-//W3C//DTD SVG 1.1//EN" "http://www.w3.org/Graphics/SVG/1.1/DTD/svg11.dtd">
<svg width="100%" height="100%" viewBox="0 0 709 709" version="1.1" xmlns="http://www.w3.org/2000/svg" xmlns:xlink="http://www.w3.org/1999/xlink" xml:space="preserve" xmlns:serif="http://www.serif.com/" style="fill-rule:evenodd;clip-rule:evenodd;stroke-linejoin:round;stroke-miterlimit:2;">
    <g transform="matrix(1,0,0,1,-2083.99,-942.55)">
        <g transform="matrix(2.51382,0,0,3.89032,-3676.38,806.102)">
            <g transform="matrix(0.493797,0,0,0.300954,1401.26,304.044)">
                <g transform="matrix(1.01492,0,0,1.07604,37.3408,-893.728)">
                    <path d="M2061.99,475L2161.03,475C2128.07,491.015 2091.08,500 2052,500C2049.47,500 2046.96,499.962 2044.45,499.888C2048.51,493.736 2052.94,488.105 2057.74,482.985C2058.8,481.853 2059.67,480.545 2060.29,479.119C2060.88,477.756 2061.45,476.383 2061.99,475ZM2080.51,425L2230.47,425C2221.61,434.029 2212.08,442.39 2201.95,450L2068.72,450C2068.87,448.883 2069,447.758 2069.12,446.623C2069.27,445.056 2068.32,443.591 2066.84,443.077C2061.79,441.346 2057.74,438.757 2055.55,434.57C2055.09,433.67 2054.94,432.641 2055.14,431.647C2055.59,429.486 2056.34,427.267 2057.32,425L2074.73,425C2076.89,428.643 2079.22,432.287 2081.72,435.93C2080.65,433.331 2080.3,429.605 2080.51,425ZM2099.2,400L2084.48,400C2086.08,392.887 2088.06,385.181 2090.22,377.186C2093.22,385.506 2096.2,393.07 2099.2,400ZM2103.15,375L2268.51,375C2263.49,383.676 2257.96,392.023 2251.96,400L2103.97,400C2103.2,391.32 2103.08,383.083 2103.15,375ZM2101.6,325L2290.54,325C2287.85,333.539 2284.72,341.882 2281.17,350L2103.37,350C2103.27,341.908 2102.85,333.671 2101.6,325ZM2085.42,275L2300.76,275C2299.92,283.464 2298.66,291.805 2296.99,300L2095.78,300C2093.23,292.172 2089.87,283.889 2085.42,275ZM1802.01,248.183C1802.99,111.039 1914.63,-0 2052,-0C2189.98,-0 2302,112.021 2302,250L2086.79,250C2043.72,235.143 2005.06,192.629 1942.2,190.713L1951.29,181.63C1944.88,183.531 1939.04,184.862 1934.48,184.915C1938.01,179.253 1940.27,173.45 1941.43,167.524C1894.78,209.32 1855.27,186.92 1815.25,239.215C1810.44,242.002 1806.04,245.003 1802.01,248.183Z" style="fill:white;"/>
                </g>
                <g transform="matrix(1.26865,0,0,1.34506,-641.718,-794.99)">
                    <clipPath id="_clip1">
                        <path d="M2426.86,-123.408L2426.86,376.592L1926.86,376.592L1926.86,-123.408L2426.86,-123.408ZM2176.86,-73.408C2066.48,-73.408 1976.86,16.209 1976.86,126.592C1976.86,236.975 2066.48,326.592 2176.86,326.592C2287.24,326.592 2376.86,236.975 2376.86,126.592C2376.86,16.209 2287.24,-73.408 2176.86,-73.408Z"/>
                    </clipPath>
                    <g clip-path="url(#_clip1)">
                        <path d="M2209.76,128.167C2205.92,129.223 2201.68,129.995 2196.15,129.868C2198.71,132.114 2201.55,134.409 2205.12,136.824C2202.24,135.312 2199.44,134.108 2197.24,134.969C2229.29,189.165 2212.49,215.833 2219.96,258.177C2215.79,249.729 2211.61,239.955 2207.44,228.341C2201.73,249.426 2197.62,267.998 2200.64,275.336C2195.83,268.328 2191.81,261.32 2188.58,254.312C2184.03,260.473 2180.52,266.424 2179.37,271.91C2179.21,272.705 2179.33,273.528 2179.7,274.248C2181.45,277.598 2184.69,279.669 2188.73,281.054C2189.92,281.465 2190.67,282.637 2190.55,283.891C2189.62,293.211 2187.01,301.76 2183.49,309.888C2182.99,311.029 2182.3,312.075 2181.45,312.98C2171.6,323.503 2163.66,336.728 2157.71,352.77C2157.4,353.617 2156.6,354.186 2155.7,354.205C2143.06,354.221 2122.2,348.962 2100.31,343.046C2090.23,355.987 2084.44,367.345 2084.39,376.592C2053.35,376.11 2027.72,369.343 2009.87,353.558C2015.26,345.441 2017.97,338.122 2015.44,332.38L2008.17,341.191C2010.38,326.699 2005.65,314.515 1995.19,304.244C1988.94,313.455 1979.29,321.907 1968.29,330.061C1978.44,305.322 1976.17,282.586 1953.6,263.124C1944.63,268.906 1936,269.35 1926.86,278.892C1952.83,230.922 1940.31,210.289 1946.1,178.347C1950.14,156.069 1961.37,133.093 1987.46,117.964C2019.47,76.128 2051.08,94.049 2088.41,60.612C2087.48,65.352 2085.67,69.995 2082.84,74.525C2086.49,74.482 2091.16,73.417 2096.29,71.897L2089.02,79.162C2141.76,80.77 2173.21,118.101 2209.76,128.167ZM2012.45,329.765C2013.33,328.763 2014.65,328.266 2015.98,328.448C2017.34,328.636 2018.51,329.518 2019.07,330.777C2021.72,336.79 2019.97,344.403 2015.07,352.742C2031.4,365.82 2053.89,371.663 2080.74,372.535C2082.13,363.427 2087.83,352.61 2097.18,340.607C2098.16,339.347 2099.8,338.798 2101.34,339.215C2122.15,344.838 2142,349.922 2154.43,350.223C2160.52,334.164 2168.61,320.89 2178.55,310.267L2178.56,310.257C2179.1,309.686 2179.54,309.026 2179.85,308.307C2183.09,300.827 2185.53,292.976 2186.5,284.469C2181.86,282.713 2178.25,280.041 2176.18,276.085L2176.17,276.059L2175.69,274.891L2175.41,273.668L2175.34,272.415L2175.47,271.159L2175.48,271.092C2176.74,265.14 2180.45,258.637 2185.39,251.954C2186.22,250.825 2187.59,250.221 2188.98,250.364C2190.38,250.508 2191.6,251.377 2192.18,252.652C2193.41,255.315 2194.75,257.977 2196.22,260.639C2197.37,251.607 2200.2,239.895 2203.61,227.304C2204.06,225.631 2205.55,224.445 2207.28,224.376C2209.01,224.306 2210.59,225.368 2211.17,226.999C2212.06,229.473 2212.95,231.862 2213.84,234.17C2213.71,226.655 2213.95,219.408 2214,212.097C2214.14,190.652 2212.54,168.644 2193.82,136.989C2193.23,135.987 2193.1,134.775 2193.48,133.675C2193.56,133.457 2193.65,133.248 2193.76,133.049L2193.53,132.849C2192.28,131.747 2191.85,129.979 2192.46,128.425C2192.76,127.64 2193.3,126.994 2193.97,126.551C2180.71,120.532 2167.64,111.969 2153.5,103.945C2135,93.448 2114.55,83.911 2088.9,83.129C2087.32,83.081 2085.92,82.097 2085.33,80.625C2085.04,79.892 2084.98,79.108 2085.14,78.367C2084.35,78.442 2083.6,78.485 2082.89,78.493C2081.44,78.51 2080.09,77.734 2079.38,76.47C2078.72,75.294 2078.7,73.869 2079.32,72.685C2064.55,82.514 2050.61,85.916 2037.07,89.942C2021.2,94.663 2005.94,100.343 1990.61,120.376C1990.29,120.79 1989.9,121.137 1989.45,121.398C1964.54,135.839 1953.86,157.791 1950,179.055C1947.73,191.587 1948.36,202.345 1948.27,213.753C1948.15,228.668 1946.92,244.647 1937.31,266.616C1937.75,266.402 1938.19,266.194 1938.64,265.99C1942.89,264.041 1947.14,262.568 1951.45,259.787C1952.93,258.835 1954.86,258.969 1956.19,260.118C1976.35,277.501 1981.4,297.317 1976.17,318.794C1982.47,313.438 1987.92,307.897 1991.9,302.017C1992.56,301.043 1993.62,300.412 1994.79,300.295C1995.97,300.179 1997.13,300.588 1997.97,301.412C2006.38,309.669 2011.37,319.068 2012.45,329.765Z" style="fill:white;"/>
                    </g>
                </g>
            </g>
        </g>
    </g>
</svg>
